<svg width="285" height="115" viewBox="0 0 285 115" fill="none" xmlns="http://www.w3.org/2000/svg">
<path d="M23.296 94.64C16.6827 94.64 11.5627 92.8053 7.936 89.136C4.352 85.424 2.56 80.176 2.56 73.392C2.56 68.784 3.43467 64.8373 5.184 61.552C6.93333 58.2667 9.45067 55.7493 12.736 54C16.064 52.2507 20.0107 51.376 24.576 51.376C26.368 51.376 28.3093 51.5253 30.4 51.824C32.4907 52.08 34.624 52.4853 36.8 53.04L34.56 60.016C32.5547 59.376 30.528 58.8853 28.48 58.544C26.4747 58.2027 24.448 58.032 22.4 58.032C20.7787 58.032 19.1787 58.1813 17.6 58.48C16.064 58.736 14.528 59.1413 12.992 59.696L16.768 56.944C15.2747 59.4187 14.1653 61.9787 13.44 64.624C12.7573 67.2693 12.416 70.1707 12.416 73.328C12.416 78.2347 13.3973 81.9467 15.36 84.464C17.3227 86.9813 20.224 88.24 24.064 88.24C25.472 88.24 26.9867 88.048 28.608 87.664C30.272 87.28 32.0853 86.7253 34.048 86L36.8 92.656C31.7227 93.9787 27.2213 94.64 23.296 94.64ZM27.712 92.848L32.896 79.088H36.8V92.656L27.712 92.848ZM32.896 66.544L27.776 52.912L36.8 53.04V66.544H32.896ZM42.588 94V91.184C43.0147 90.8853 43.484 90.5867 43.996 90.288C44.5507 89.9467 45.1693 89.648 45.852 89.392L46.684 55.856L42.908 50.032C44.7427 48.9653 46.6627 48.112 48.668 47.472C50.6733 46.832 52.8067 46.448 55.068 46.32V89.648L58.524 90.992V94H42.588ZM91.686 87.92L97.062 87.28C96.9767 88.9013 96.5927 90.2453 95.91 91.312C95.27 92.3787 94.438 93.1893 93.414 93.744C92.4327 94.256 91.3873 94.512 90.278 94.512C89.126 94.512 87.974 94.2133 86.822 93.616C85.7127 93.0187 84.774 92.1227 84.006 90.928C83.238 89.6907 82.7687 88.176 82.598 86.384L83.11 71.024L79.526 65.648C83.4513 63.4293 87.5047 62.2133 91.686 62V87.92ZM76.39 94.512C75.9633 94.5547 75.558 94.576 75.174 94.576C74.8327 94.6187 74.47 94.64 74.086 94.64C71.8673 94.64 69.8833 94.1707 68.134 93.232C66.4273 92.2507 64.9127 90.7573 63.59 88.752L70.95 84.272C73.0833 86.0213 75.3447 86.896 77.734 86.896C79.526 86.896 81.3607 86.2987 83.238 85.104L83.43 86.384C82.4487 88.048 81.3607 89.5413 80.166 90.864C79.014 92.1867 77.7553 93.4027 76.39 94.512ZM63.59 88.752L64.23 71.024L60.582 65.648C64.7633 63.4293 68.8167 62.2133 72.742 62V87.984L63.59 88.752ZM100.775 92.08L103.975 86C106.193 86.8533 108.092 87.4933 109.671 87.92C111.292 88.3467 112.679 88.56 113.831 88.56C116.348 88.56 118.204 87.7707 119.399 86.192C120.593 84.5707 121.191 82.224 121.191 79.152C121.191 77.488 120.999 75.8453 120.615 74.224C120.273 72.6027 119.74 71.088 119.015 69.68L122.599 72.88C120.081 70.8747 117.479 69.872 114.791 69.872C113.041 69.872 111.271 70.4267 109.479 71.536L109.351 69.936C110.375 68.4427 111.42 67.0773 112.487 65.84C113.596 64.6027 114.769 63.408 116.007 62.256C116.263 62.1707 116.519 62.128 116.775 62.128C117.031 62.128 117.265 62.128 117.479 62.128C120.039 62.128 122.257 62.768 124.135 64.048C126.012 65.328 127.463 67.1413 128.487 69.488C129.553 71.8347 130.087 74.544 130.087 77.616C130.087 81.2427 129.404 84.336 128.039 86.896C126.716 89.4133 124.817 91.3333 122.343 92.656C119.868 93.9787 116.945 94.64 113.575 94.64C111.697 94.64 109.692 94.4267 107.559 94C105.425 93.5733 103.164 92.9333 100.775 92.08ZM100.775 92.08L101.671 55.856L97.9585 49.968C99.8785 48.8587 101.841 48.0053 103.847 47.408C105.852 46.8107 107.9 46.448 109.991 46.32V89.84L100.775 92.08Z" fill="white"/>
<path d="M152.856 52.144C155.8 52.144 158.317 52.656 160.408 53.68C162.541 54.704 164.184 56.1547 165.336 58.032C166.531 59.9093 167.128 62.128 167.128 64.688C167.128 67.504 166.445 69.9573 165.08 72.048C163.715 74.1387 161.816 75.7813 159.384 76.976C156.952 78.128 154.093 78.704 150.808 78.704H139.352V73.072H153.752C154.989 72.0053 155.907 70.832 156.504 69.552C157.101 68.272 157.4 66.8427 157.4 65.264C157.4 62.7893 156.781 60.9547 155.544 59.76C154.349 58.5227 152.6 57.904 150.296 57.904H144.216V89.2L152.344 90.544V94H128.536V90.864C129.304 90.48 130.157 90.1387 131.096 89.84C132.035 89.5413 133.144 89.2853 134.424 89.072L135.128 57.2L128.536 55.536V52.144H152.856Z" fill="#E2A42D"/>
<path d="M169.786 94V91.184C170.255 90.8427 170.746 90.5227 171.258 90.224C171.813 89.9253 172.41 89.648 173.05 89.392L173.69 71.024L170.106 65.648C171.941 64.5813 173.861 63.728 175.866 63.088C177.871 62.448 180.005 62.0853 182.266 62V89.648L185.658 90.992V94H169.786Z" fill="#E2A42D"/>
<path d="M188.667 94V90.928L205.371 67.76L195.131 68.08L192.955 74.8H189.627L189.563 62.768H216.251V65.776L199.547 89.072L210.811 88.688L212.859 81.776H216.251L216.379 94H188.667Z" fill="#E2A42D"/>
<path d="M220.479 94V90.928L237.183 67.76L226.943 68.08L224.767 74.8H221.439L221.375 62.768H248.063V65.776L231.359 89.072L242.623 88.688L244.671 81.776H248.063L248.191 94H220.479Z" fill="#E2A42D"/>
<path d="M276.868 94.512C275.332 94.512 273.881 94 272.516 92.976C271.151 91.9093 270.212 90.288 269.7 88.112L270.532 70.32C267.545 68.3573 263.919 67.376 259.652 67.376C259.012 67.376 258.351 67.4187 257.668 67.504C257.028 67.5467 256.409 67.632 255.812 67.76L261.06 65.264L259.652 75.056C257.348 74.928 255.62 74.48 254.468 73.712C253.316 72.9013 252.74 71.8347 252.74 70.512C252.74 68.976 253.337 67.5893 254.532 66.352C255.769 65.072 257.391 64.048 259.396 63.28C261.444 62.512 263.684 62.128 266.116 62.128C268.676 62.128 271.001 62.6187 273.092 63.6C275.225 64.5387 277.06 65.9253 278.596 67.76V87.728L284.036 87.088C284.036 88.5813 283.695 89.8827 283.012 90.992C282.372 92.1013 281.519 92.976 280.452 93.616C279.385 94.2133 278.191 94.512 276.868 94.512ZM263.684 94.704C260.185 94.6613 257.412 93.8507 255.364 92.272C253.316 90.6933 252.292 88.56 252.292 85.872C252.292 84.72 252.548 83.7173 253.06 82.864C253.572 81.968 254.511 81.136 255.876 80.368C257.284 79.5573 259.268 78.7253 261.828 77.872C264.388 76.976 267.716 75.952 271.812 74.8V79.216L259.076 81.072L261.764 79.856C261.593 80.496 261.465 81.136 261.38 81.776C261.295 82.416 261.252 83.0133 261.252 83.568C261.252 85.1893 261.572 86.384 262.212 87.152C262.895 87.92 263.919 88.304 265.284 88.304C266.223 88.304 267.183 88.1547 268.164 87.856C269.145 87.5147 270.191 87.024 271.3 86.384V87.152C270.233 88.688 269.081 90.0747 267.844 91.312C266.649 92.5067 265.263 93.6373 263.684 94.704Z" fill="#E2A42D"/>
<path d="M175.931 52.0486L180.604 49.5145L180.608 49.5131L181.829 48.8524C181.944 48.7894 182.089 48.8319 182.153 48.9476C182.633 49.8163 182.929 50.7611 183.034 51.7264C183.139 52.6843 183.056 53.6628 182.781 54.6076C182.778 54.6223 182.774 54.6354 182.769 54.6501C182.181 56.6188 180.847 58.1671 179.159 59.0811C177.473 59.9951 175.436 60.2749 173.446 59.7036C173.432 59.7007 173.417 59.6963 173.403 59.6904C171.416 59.1075 169.852 57.7862 168.929 56.1149C168.002 54.4377 167.721 52.4133 168.305 50.4344V50.4329C168.889 48.454 170.229 46.8984 171.921 45.9814C173.614 45.0645 175.659 44.7862 177.656 45.3648C177.783 45.4014 177.856 45.5317 177.819 45.6577L175.931 52.0486Z" fill="#FB8F2D"/>
<path d="M179.904 52.1336C179.78 52.012 179.61 51.9358 179.422 51.9358C179.234 51.9358 179.063 52.012 178.94 52.1336C178.816 52.2566 178.74 52.4251 178.74 52.6111C178.74 52.7971 178.817 52.9671 178.94 53.0886C179.063 53.2117 179.234 53.2864 179.422 53.2864C179.61 53.2864 179.782 53.2102 179.904 53.0886C180.029 52.9671 180.104 52.7971 180.104 52.6111C180.103 52.4251 180.027 52.2566 179.904 52.1336Z" fill="black"/>
<path d="M180.991 49.8631L175.665 52.7517C175.636 52.7678 175.601 52.7781 175.569 52.7825H175.566H175.563H175.559H175.556H175.553H175.55H175.547H175.544H175.541H175.538H175.535H175.532H175.529H175.526H175.523H175.52H175.514C175.499 52.781 175.485 52.7781 175.47 52.7737C175.334 52.7341 175.255 52.595 175.295 52.4588L177.002 46.6845C175.47 46.3081 173.917 46.5454 172.622 47.2485C171.257 47.9882 170.177 49.2435 169.707 50.8387C169.235 52.4353 169.463 54.0686 170.209 55.422C170.956 56.774 172.223 57.8433 173.834 58.3091C175.446 58.7764 177.097 58.5508 178.462 57.8126C179.827 57.0729 180.907 55.8175 181.378 54.2224C181.604 53.4563 181.672 52.6594 181.588 51.8802C181.509 51.1829 181.309 50.5003 180.991 49.8631Z" fill="#FFE278"/>
<path d="M181.039 49.8177C181.366 50.4666 181.57 51.1639 181.647 51.8728C181.733 52.6594 181.664 53.4621 181.435 54.237C180.959 55.8498 179.867 57.1197 178.487 57.8668C177.109 58.6138 175.442 58.8409 173.815 58.3692C172.186 57.8975 170.904 56.8165 170.149 55.4499C169.395 54.0847 169.166 52.4339 169.642 50.8226C170.118 49.2098 171.21 47.9399 172.59 47.1928C173.905 46.4809 175.48 46.2407 177.033 46.6289L177.291 45.7559C175.494 45.2988 173.67 45.5728 172.151 46.3945C170.565 47.2558 169.311 48.7133 168.763 50.5648C168.216 52.4192 168.479 54.3161 169.348 55.8864C170.216 57.4552 171.688 58.6973 173.557 59.2393C175.43 59.7813 177.344 59.5205 178.93 58.6622C180.514 57.8038 181.768 56.3449 182.315 54.4934C182.579 53.6042 182.657 52.6799 182.558 51.7747C182.468 50.9471 182.228 50.1356 181.843 49.3812L181.039 49.8177Z" fill="#FF9F34"/>
<path d="M180.415 42.0089C181.395 42.2931 182.272 42.7574 183.021 43.3536C183.799 43.9732 184.438 44.7364 184.911 45.5903C184.975 45.7046 184.932 45.8481 184.815 45.9111L178.413 49.3812C178.298 49.4442 178.153 49.4017 178.089 49.286C178.058 49.2289 178.052 49.1644 178.07 49.1073L180.12 42.1715C180.154 42.0455 180.287 41.9738 180.415 42.0089Z" fill="#FB8F2D"/>
<path d="M183.528 46.1631C183.104 45.5523 182.589 45.0015 181.991 44.5342C181.434 44.0977 180.807 43.733 180.12 43.4591L178.518 48.8773L183.528 46.1631Z" fill="#FFE278"/>
<path d="M180.316 43.1881C181.015 43.462 181.654 43.8311 182.221 44.2749C182.827 44.7495 183.349 45.312 183.777 45.9345L184.374 45.6108C183.945 44.8945 183.388 44.2515 182.722 43.7212C182.079 43.2086 181.335 42.8014 180.509 42.5318L180.316 43.1881Z" fill="#FF9F34"/>
<path d="M179.421 51.5096C179.728 51.5096 180.006 51.6326 180.208 51.8318C180.409 52.031 180.533 52.3064 180.533 52.6111C180.533 52.9158 180.409 53.1912 180.208 53.3904C180.006 53.5896 179.728 53.7126 179.421 53.7126C179.113 53.7126 178.835 53.5896 178.634 53.3904C178.433 53.1912 178.308 52.9158 178.308 52.6111C178.308 52.3064 178.433 52.031 178.634 51.8318C178.835 51.6341 179.114 51.5096 179.421 51.5096Z" fill="#D83636"/>
<path d="M171.963 52.3094C172.458 52.3094 172.861 52.7078 172.861 53.1985C172.861 53.6892 172.458 54.0876 171.963 54.0876C171.467 54.0876 171.065 53.6892 171.065 53.1985C171.065 52.7078 171.467 52.3094 171.963 52.3094Z" fill="#D83636"/>
<path d="M172.878 49.3739L174.02 47.7421L175.211 49.4222L172.878 49.3739Z" fill="#F2433B"/>
<path d="M173.852 56.8209C173.735 56.8414 173.624 56.7653 173.603 56.6495C173.582 56.5338 173.659 56.424 173.776 56.4035C174 56.3639 174.192 56.3493 174.372 56.3903C174.568 56.4342 174.736 56.5382 174.892 56.7316C174.897 56.7389 174.903 56.7447 174.909 56.7506C174.96 56.7975 175.042 56.8019 175.13 56.7828C175.248 56.7579 175.366 56.6935 175.455 56.6246C175.48 56.6056 175.502 56.5851 175.519 56.5675C175.834 56.2394 176.235 56.4269 176.569 56.5851C176.68 56.6378 176.717 56.8077 176.746 56.7447C176.748 56.7404 176.751 56.736 176.752 56.7316C176.785 56.6334 176.885 56.5704 176.99 56.588C177.107 56.6071 177.187 56.7155 177.168 56.8326C177.156 56.9088 177.138 56.944 177.112 56.9689C176.956 57.2413 176.693 57.1168 176.385 56.9718C176.178 56.8737 175.93 56.7579 175.829 56.8634C175.798 56.8971 175.761 56.9293 175.721 56.9601C175.588 57.0641 175.405 57.1622 175.22 57.2018C175.004 57.2486 174.784 57.2223 174.612 57.0611C174.591 57.0421 174.572 57.0216 174.554 56.9982C174.466 56.8868 174.375 56.8297 174.275 56.8063C174.162 56.7784 174.022 56.7902 173.852 56.8209ZM174.171 53.3611C174.159 53.2439 174.244 53.1399 174.362 53.1267C174.48 53.115 174.585 53.1985 174.599 53.3157C174.643 53.7185 174.6 54.0744 174.471 54.3806C174.34 54.694 174.121 54.9518 173.813 55.1525C173.714 55.217 173.581 55.1906 173.516 55.0925C173.451 54.9943 173.477 54.8625 173.577 54.798C173.81 54.6442 173.977 54.4509 174.075 54.2165C174.174 53.9763 174.207 53.6907 174.171 53.3611ZM172.448 51.2122C172.331 51.2327 172.22 51.1566 172.198 51.0423C172.177 50.9266 172.254 50.8167 172.371 50.7948C172.495 50.7713 172.62 50.7318 172.735 50.6937C173.119 50.5677 173.427 50.4681 173.776 50.8402C173.871 50.9412 174.023 50.9456 174.193 50.9486C174.322 50.9515 174.46 50.9544 174.606 50.9866C174.721 51.0115 174.795 51.1243 174.77 51.2401C174.745 51.3543 174.631 51.4275 174.514 51.4026C174.402 51.3777 174.289 51.3763 174.184 51.3733C173.917 51.3675 173.679 51.3616 173.461 51.1302C173.3 50.9573 173.109 51.0203 172.87 51.098C172.745 51.139 172.609 51.1829 172.448 51.2122Z" fill="#75AA00"/>
<path d="M176.309 55.5641L177.505 54.1433L178.552 55.5788L176.309 55.5641Z" fill="#F2433B"/>
<path d="M181.07 44.71C181.565 44.71 181.968 45.1084 181.968 45.5991C181.968 46.0898 181.565 46.4883 181.07 46.4883C180.574 46.4883 180.172 46.0898 180.172 45.5991C180.172 45.1084 180.574 44.71 181.07 44.71Z" fill="#D83636"/>
<path d="M179.421 52.2977C179.508 52.2977 179.586 52.3328 179.644 52.3885C179.702 52.4456 179.736 52.5232 179.736 52.6097C179.736 52.6961 179.7 52.7737 179.644 52.8308C179.586 52.888 179.508 52.9217 179.421 52.9217C179.333 52.9217 179.255 52.8865 179.197 52.8308C179.14 52.7737 179.106 52.6961 179.106 52.6097C179.106 52.5232 179.141 52.4456 179.197 52.3885C179.253 52.3328 179.333 52.2977 179.421 52.2977Z" fill="white"/>
<path d="M171.963 52.885C172.05 52.885 172.128 52.9202 172.186 52.9758C172.244 53.033 172.278 53.1106 172.278 53.197C172.278 53.2834 172.242 53.3611 172.186 53.4182C172.128 53.4753 172.05 53.509 171.963 53.509C171.876 53.509 171.797 53.4739 171.739 53.4182C171.682 53.3611 171.648 53.2834 171.648 53.197C171.648 53.1106 171.683 53.033 171.739 52.9758C171.796 52.9202 171.876 52.885 171.963 52.885Z" fill="white"/>
</svg>
